<svg xmlns="http://www.w3.org/2000/svg" viewBox="0 0 500 500"><path d="M50 0C22.3 0 0 22.3 0 50v400c0 27.7 22.3 50 50 50h400c27.7 0 50-22.3 50-50V50c0-27.7-22.3-50-50-50H50zm89.906 105.781c19.182 0 34.719 15.537 34.719 34.719 0 19.182-15.537 34.75-34.719 34.75-19.182 0-34.719-15.568-34.719-34.75 0-19.182 15.537-34.719 34.72-34.719zm181.875 90.438c3.922.014 7.925.199 13.313.531 26.184 1.615 55.36 22.08 56.219 70.031.706 39.493.5 102.081.5 125.125H332.28c0-23.574.25-72.274.25-106.719 0-15.672-7.035-36.75-32.094-36.75-27.597 0-34.312 25.645-34.312 36.75 0 33.074-.281 85.752-.281 106.72h-59.188c0-35.345.375-156.654.375-190.907 30.568 0 45.191-.063 56.375-.063 0 11.218-.094 18.722-.094 26.907 9.337-18.852 34.832-30.655 45.75-31.219 4.98-.257 8.797-.42 12.72-.406zm-211.594 5.531h59.344v190.063h-59.344V201.75z" fill="#a9a9a9" fill-opacity="1" fill-rule="nonzero" class="fill-000000"></path></svg>