<svg id="SvgjsSvg1113" width="288" height="288" xmlns="http://www.w3.org/2000/svg" version="1.1" xmlns:xlink="http://www.w3.org/1999/xlink" xmlns:svgjs="http://svgjs.com/svgjs"><rect id="SvgjsRect1120" width="288" height="288" rx="62" ry="62" transform="matrix(0.6500000357627869,0,0,0.6500000357627869,50.399993896484375,50.399993896484375)" fill="#04293a"></rect><defs id="SvgjsDefs1114"></defs><g id="SvgjsG1115" transform="matrix(0.5800000429153442,0,0,0.5800000429153442,60.47999572753906,60.47999572753906)"><svg xmlns="http://www.w3.org/2000/svg" viewBox="0 0 48 48" width="288" height="288"><path fill="none" d="M0 0h48v48H0z"></path><path d="M42 16v-2l-6 4-6-4v2l6 4 6-4zm2-10H4c-2.21 0-4 1.79-4 4v28c0 2.21 1.79 4 4 4h40c2.21 0 3.98-1.79 3.98-4L48 10c0-2.21-1.79-4-4-4zm-28 6c3.31 0 6 2.69 6 6 0 3.32-2.69 6-6 6s-6-2.68-6-6c0-3.31 2.69-6 6-6zm12 24H4v-2c0-4 8-6.2 12-6.2S28 30 28 34v2zm16-12H28V12h16v12z" fill="#064663" class="color000 svgShape"></path><path fill="none" d="M0 0h48v48H0z"></path></svg></g></svg>